<?xml version="1.0" standalone="no"?>
<!DOCTYPE svg PUBLIC "-//W3C//DTD SVG 20010904//EN"
 "http://www.w3.org/TR/2001/REC-SVG-20010904/DTD/svg10.dtd">
<svg version="1.0" xmlns="http://www.w3.org/2000/svg"
 width="1000.000000pt" height="1000.000000pt" viewBox="0 0 1000.000000 1000.000000"
 preserveAspectRatio="xMidYMid meet">
<metadata>
Created by potrace 1.14, written by Peter Selinger 2001-2017
</metadata>
<g transform="translate(0.000000,1000.000000) scale(0.100000,-0.100000)"
fill="#000000" stroke="none">
<path d="M2080 9695 c-4 -5 -114 -269 -245 -585 -130 -316 -243 -588 -250
-605 -8 -16 -62 -147 -120 -290 -59 -143 -113 -274 -120 -291 -8 -17 -45 -107
-83 -200 -100 -244 -352 -854 -367 -889 -8 -16 -93 -223 -190 -460 -98 -236
-183 -443 -190 -460 -8 -16 -50 -118 -94 -225 l-80 -195 611 -3 c336 -1 613 0
615 2 2 2 19 44 38 92 108 291 246 639 254 643 16 10 1781 5 1790 -5 4 -5 29
-65 55 -134 26 -69 56 -145 66 -170 24 -55 102 -258 138 -357 l26 -73 623 0
623 0 -14 33 c-29 66 -45 104 -81 192 -20 50 -42 104 -50 120 -7 17 -34 82
-60 145 -26 63 -74 180 -107 260 -33 80 -65 159 -73 175 -7 17 -32 77 -55 135
-24 58 -51 123 -60 145 -10 22 -59 141 -110 265 -50 124 -99 241 -107 260 -24
56 -27 64 -128 310 -89 215 -250 604 -395 955 -32 77 -99 239 -149 360 -220
536 -350 847 -355 852 -11 11 -1347 9 -1356 -2z m755 -1345 c31 -80 60 -154
65 -165 5 -11 61 -157 126 -325 64 -168 161 -420 215 -560 55 -140 99 -259 99
-265 0 -7 -198 -9 -577 -9 -318 1 -581 2 -585 3 -12 2 -10 19 6 54 13 30 129
332 181 472 35 95 285 748 294 770 5 11 22 54 37 95 15 41 34 91 42 110 l14
35 14 -35 c7 -19 38 -100 69 -180z"/>
<path d="M5882 9695 c-4 -5 -7 -954 -7 -2107 l0 -2098 585 0 586 0 0 795 -1
795 141 0 141 0 159 -252 c88 -138 168 -266 179 -284 11 -18 63 -101 115 -184
52 -83 102 -163 111 -178 9 -15 102 -162 206 -327 104 -165 198 -315 208 -332
l19 -33 663 0 663 0 -37 57 c-21 31 -270 406 -554 832 l-516 776 41 13 c396
128 614 269 796 513 95 128 186 328 206 457 3 19 8 44 11 56 10 42 11 283 2
351 -37 268 -170 530 -356 706 -73 68 -171 142 -244 182 -24 13 -64 35 -89 49
-113 61 -343 141 -470 163 -19 3 -42 8 -50 10 -42 12 -232 35 -341 41 -202 11
-2160 10 -2167 -1z m2153 -874 c241 -68 371 -228 379 -465 10 -309 -167 -501
-501 -542 -38 -5 -787 -9 -853 -5 -13 1 -15 63 -13 504 0 276 1 510 2 520 1
18 21 18 454 15 432 -4 456 -5 532 -27z"/>
<path d="M346 4550 c-10 -4 -12 -256 -11 -1345 1 -737 5 -1365 9 -1395 6 -50
20 -133 30 -186 51 -258 186 -534 347 -709 21 -22 48 -52 61 -66 21 -24 106
-101 155 -140 249 -201 682 -361 1063 -394 36 -3 90 -8 120 -11 58 -6 345 -5
418 1 84 7 167 15 197 20 36 7 182 33 210 39 57 11 157 41 258 75 564 193 966
599 1101 1114 31 118 39 168 52 312 7 78 13 2645 6 2675 -3 13 -75 15 -582 14
-319 0 -582 -2 -584 -5 -3 -3 -7 -610 -9 -1350 -3 -1514 3 -1391 -83 -1566
-77 -156 -207 -269 -379 -328 -27 -9 -54 -18 -60 -19 -146 -33 -168 -35 -320
-37 -200 -1 -327 25 -470 96 -181 90 -298 246 -346 465 -21 94 -21 110 -23
1419 l-1 1324 -573 1 c-315 1 -579 -1 -586 -4z"/>
<path d="M5385 4552 c-20 -3 -20 -8 -20 -2105 l0 -2102 586 -3 586 -2 0 1290
c0 709 2 1292 4 1294 2 2 92 -113 199 -256 207 -276 404 -536 417 -553 5 -5
26 -35 48 -65 22 -30 42 -57 45 -60 4 -3 47 -59 96 -125 49 -66 95 -126 101
-135 11 -14 380 -502 862 -1142 l186 -248 588 0 587 0 0 2105 c0 1158 -3 2105
-7 2106 -42 5 -1142 3 -1153 -2 -13 -6 -15 -160 -15 -1303 1 -1025 -2 -1294
-11 -1284 -9 9 -1337 1777 -1582 2106 -9 12 -96 127 -192 254 l-175 232 -565
0 c-311 1 -574 0 -585 -2z"/>
</g>
</svg>
